<?xml version="1.0" encoding="UTF-8"?>
<svg version="1.1" xmlns="http://www.w3.org/2000/svg" width="1800" height="663">
<path d="M0 0 C0.62310059 0.51272461 1.24620117 1.02544922 1.88818359 1.55371094 C13.2199275 10.94540163 24.95176685 20.70313935 34.36328125 32.05859375 C36.31961898 34.37911845 38.41248931 36.54670568 40.5 38.75 C92.01845961 95.29465079 119.30402664 173.48229731 119.1875 249.375 C119.18656342 250.16746124 119.18562683 250.95992249 119.18466187 251.77639771 C119.05167026 303.91893475 106.41691682 354.88891608 82 401 C81.42378906 402.08861328 81.42378906 402.08861328 80.8359375 403.19921875 C69.27873289 424.85965707 55.14040784 444.52218554 39 463 C38.29875 463.81339844 37.5975 464.62679687 36.875 465.46484375 C27.36465378 476.29006738 17.18803363 486.91755337 5.80078125 495.78149414 C2.9715201 498.022559 0.23513083 500.34969153 -2.5078125 502.6953125 C-8.73333882 507.93469019 -15.32620643 512.53233568 -22.125 517 C-22.71293335 517.38874298 -23.3008667 517.77748596 -23.90661621 518.17800903 C-33.67685083 524.62930056 -43.55420977 530.69845683 -54 536 C-54.84353027 536.43328613 -55.68706055 536.86657227 -56.55615234 537.31298828 C-131.94690724 575.72267987 -220.6698639 582.13111262 -301.16259766 556.56958008 C-330.47001636 547.04198603 -358.89172231 534.00864734 -384 516 C-384.62696777 515.55414551 -385.25393555 515.10829102 -385.89990234 514.64892578 C-397.87498904 506.10639827 -409.1276808 496.91198817 -420 487 C-421.728887 485.45801971 -423.45805194 483.91635099 -425.1875 482.375 C-431.93784644 476.28914079 -438.09447123 469.90331948 -444 463 C-444.79019531 462.09894531 -445.58039063 461.19789063 -446.39453125 460.26953125 C-459.17106811 445.58893683 -470.24802175 429.82774567 -480 413 C-480.41701172 412.29085449 -480.83402344 411.58170898 -481.26367188 410.85107422 C-499.87960085 379.08637482 -512.37769731 344.18724592 -519 308 C-519.16290527 307.13665039 -519.32581055 306.27330078 -519.49365234 305.38378906 C-529.7930431 249.54850668 -524.20962159 187.81153273 -503 135 C-502.64744141 134.12182617 -502.29488281 133.24365234 -501.93164062 132.33886719 C-487.75477782 97.55553167 -468.68324504 66.26325767 -444 38 C-443.31035156 37.19820313 -442.62070312 36.39640625 -441.91015625 35.5703125 C-431.25471333 23.42188046 -419.76447151 11.91590301 -407 2 C-405.90875445 1.09962125 -404.82038531 0.19574897 -403.734375 -0.7109375 C-389.2201948 -12.74298254 -373.45355923 -23.11505752 -356.83691406 -32.00732422 C-355.05249818 -32.97162977 -353.28754164 -33.97167581 -351.5234375 -34.97265625 C-318.38354256 -53.62514011 -280.46109868 -63.83295191 -243 -69 C-242.14535156 -69.11859375 -241.29070312 -69.2371875 -240.41015625 -69.359375 C-155.59866017 -80.47351801 -65.84996041 -54.24820554 0 0 Z M-251 -49 C-251.98677734 -48.82307617 -252.97355469 -48.64615234 -253.99023438 -48.46386719 C-270.08669485 -45.51641285 -286.16946081 -41.72393565 -301.53125 -36.01953125 C-302.35947266 -35.71249268 -303.18769531 -35.4054541 -304.04101562 -35.08911133 C-306.37878562 -34.07448753 -306.37878562 -34.07448753 -307.125 -30.75 C-307.08375 -29.8425 -307.0425 -28.935 -307 -28 C-301.89770534 -27.28037 -296.89569908 -26.87017113 -291.74707031 -26.71020508 C-263.79613639 -25.82307558 -236.4812734 -21.50062554 -210.29443359 -11.45239258 C-209.4070752 -11.11876709 -208.5197168 -10.7851416 -207.60546875 -10.44140625 C-206.83356201 -10.13920166 -206.06165527 -9.83699707 -205.26635742 -9.52563477 C-200.97991904 -8.53148397 -197.19306039 -10.20034418 -193.17578125 -11.671875 C-161.73518922 -22.87234838 -130.01504374 -25.17268578 -97 -27 C-97 -29.31 -97 -31.62 -97 -34 C-126.27149625 -44.40353915 -157.37324807 -52.05377012 -188.59765625 -52.203125 C-190.0736454 -52.21364647 -190.0736454 -52.21364647 -191.57945251 -52.22438049 C-194.74051535 -52.24180106 -197.90139091 -52.24823345 -201.0625 -52.25 C-202.14168701 -52.25067474 -203.22087402 -52.25134949 -204.33276367 -52.25204468 C-220.09488648 -52.23636462 -235.45998587 -51.87963703 -251 -49 Z M-308 -13 C-309.18011554 -3.53396681 -310.23211117 5.93982046 -311.125 15.4375 C-311.21249512 16.33549316 -311.29999023 17.23348633 -311.39013672 18.15869141 C-311.93625224 24.12200913 -312.10140529 30.01306415 -312 36 C-310.87432617 35.74831055 -309.74865234 35.49662109 -308.58886719 35.23730469 C-236.18947045 19.11076739 -169.29731994 18.2589172 -96.99972534 34.90800476 C-93.5349625 35.72321473 -93.5349625 35.72321473 -90 36 C-90.54860293 30.12815682 -91.10003516 24.25658868 -91.65405273 18.38525391 C-91.84199926 16.3892327 -92.02918218 14.39313944 -92.21557617 12.39697266 C-92.48413991 9.52226636 -92.75547872 6.64783323 -93.02734375 3.7734375 C-93.10967758 2.88570648 -93.19201141 1.99797546 -93.27684021 1.08334351 C-93.69555994 -3.31499251 -94.20038543 -7.65034566 -95 -12 C-128.02054518 -12.91867689 -165.30145429 -11.07085773 -195.55859375 3.7421875 C-203.30382161 6.57301993 -211.04594862 2.36017108 -218.4375 -0.25 C-236.52063572 -6.44667112 -254.93979268 -10.4552028 -274 -12 C-275.03664795 -12.08459473 -275.03664795 -12.08459473 -276.09423828 -12.17089844 C-286.73203384 -12.99576077 -297.33483396 -13.12013328 -308 -13 Z M-434 55 C-447.76831103 71.31563961 -462.36467355 94.15274574 -460.8125 116.3125 C-459.81998401 123.37163058 -457.09434309 127.30933176 -451.71875 131.80078125 C-447.05341375 135.05591359 -441.41444247 134.55301906 -436 134 C-421.28973305 130.58568641 -409.36889619 122.76061331 -398 113 C-396.73349609 111.9171875 -396.73349609 111.9171875 -395.44140625 110.8125 C-389.8371944 105.89921837 -384.83749548 100.66255382 -380 95 C-372.35047234 97.06258005 -365.22561291 99.89440905 -358 103.125 C-356.91509277 103.60420898 -355.83018555 104.08341797 -354.71240234 104.57714844 C-347.14307296 107.95195184 -339.69945539 111.52947871 -332.39453125 115.44580078 C-330.63201502 116.36876279 -328.81912442 117.19432718 -327 118 C-323.58744621 116.86248207 -323.30489161 116.34702901 -321.51953125 113.40234375 C-321.07802734 112.68369141 -320.63652344 111.96503906 -320.18164062 111.22460938 C-319.50391602 110.09249023 -319.50391602 110.09249023 -318.8125 108.9375 C-318.34908203 108.17888672 -317.88566406 107.42027344 -317.40820312 106.63867188 C-316.26433294 104.76366817 -315.12871745 102.88415078 -314 101 C-318.55194945 97.41347693 -323.58299879 95.01772413 -328.75 92.4375 C-330.32104492 91.65101074 -330.32104492 91.65101074 -331.92382812 90.84863281 C-343.05652365 85.35522111 -354.47505416 80.60133154 -366 76 C-365.54109375 75.00742188 -365.0821875 74.01484375 -364.609375 72.9921875 C-354.58218969 51.25473193 -354.58218969 51.25473193 -356.0625 28 C-359.07416162 23.33678201 -362.68340675 19.77219775 -368 18 C-394.53633465 15.46679747 -417.4939374 36.51638144 -434 55 Z M-44.875 23.875 C-50.40164092 32.00241312 -50.02241996 41.15020479 -48.3828125 50.53125 C-40.68301473 80.24020424 -17.07981364 109.08835566 9 125 C20.67005169 131.38426403 30.48746977 135.09394486 44 134 C48.15807494 132.78113381 50.52115754 130.56943427 53.3125 127.25 C58.50081993 117.25768014 57.0380724 107.12097585 54.02734375 96.6015625 C42.65075949 65.36416164 18.3550135 37.29693231 -11.5234375 22.55859375 C-21.8967122 17.90810318 -36.19946885 14.00372116 -44.875 23.875 Z M-64.4375 91.0625 C-67.05158607 95.97698182 -66.91916781 100.91616482 -65.33984375 106.21484375 C-62.45086064 112.73068877 -57.55436182 117.10607893 -51.0625 119.9375 C-46.87225622 121.27481185 -43.14648063 121.65517951 -39 120 C-35.62320458 117.57158116 -33.4438494 114.9085524 -32.4921875 110.81640625 C-32.13521951 103.95072196 -34.46539565 98.86410291 -38.953125 93.79296875 C-47.03889939 85.94750584 -55.11027064 83.170229 -64.4375 91.0625 Z M-84.4375 113 C-86.75712845 115.96912441 -86.93570637 118.2709695 -87 122 C-85.40574416 125.69196088 -83.46311728 127.96287219 -80 130 C-77.59117313 130.99843776 -77.59117313 130.99843776 -75 131 C-71.28738773 129.24886475 -71.28738773 129.24886475 -69 126 C-68.4901375 121.5811917 -68.70827793 119.49228099 -71 115.625 C-75.17295591 111.97366358 -79.01545993 110.7755733 -84.4375 113 Z M-260 116 C-265.40847654 121.57749143 -266.14337681 127.22546366 -266.5625 134.6875 C-266.26164532 148.96305477 -254.75838887 159.62151722 -246 170 C-245.00989948 171.18576627 -244.02029144 172.37194397 -243.03125 173.55859375 C-238.92813021 178.46169735 -234.76200183 183.28924669 -230.4375 188 C-219.38635157 200.20396607 -211.93328682 210.31268216 -210 227 C-215.78582445 222.71907433 -221.15377162 218.09197197 -226.41503906 213.19018555 C-229.68185209 210.16327588 -233.02705412 207.29236859 -236.5 204.5 C-240.47629694 201.30068062 -244.26666073 197.9741296 -248 194.5 C-252.63591758 190.18678889 -257.42779046 186.14279769 -262.36328125 182.171875 C-264.92420028 180.06243651 -267.37123455 177.87112352 -269.8125 175.625 C-275.92988337 170.05934266 -282.45191 165.04264127 -289 160 C-289.62535645 159.51724609 -290.25071289 159.03449219 -290.89501953 158.53710938 C-294.59111751 155.68411512 -298.29296947 152.83877255 -302 150 C-305.12770712 151.36497369 -305.12770712 151.36497369 -307.1875 154 C-309.28734125 161.75326001 -309.73097985 169.35556955 -307 177 C-302.93712345 183.2677697 -297.66828407 188.6197178 -292.37890625 193.8515625 C-291.67531479 194.55469574 -290.97172333 195.25782898 -290.24681091 195.98226929 C-288.77100155 197.45508209 -287.29278749 198.92548899 -285.81225586 200.39355469 C-283.56631134 202.62121968 -281.32849576 204.85680584 -279.09179688 207.09375 C-277.64630407 208.53432667 -276.20035566 209.97444635 -274.75390625 211.4140625 C-274.0953212 212.07153473 -273.43673615 212.72900696 -272.75819397 213.40640259 C-268.86075426 217.26483742 -264.85569297 220.94591509 -260.6971283 224.52182007 C-258.70118908 226.260261 -256.83813801 228.09621421 -255 230 C-252.40787456 232.63777932 -249.75815391 235.10869418 -246.9375 237.5 C-234.35246547 248.3474558 -234.35246547 248.3474558 -233.8046875 255.578125 C-233.82789063 256.45984375 -233.85109375 257.3415625 -233.875 258.25 C-233.89304687 259.14203125 -233.91109375 260.0340625 -233.9296875 260.953125 C-233.95289063 261.62859375 -233.97609375 262.3040625 -234 263 C-237.25207092 261.58261511 -239.31361067 259.87473588 -241.75 257.3125 C-244.39009289 254.59920676 -247.05914152 252.02145694 -249.9375 249.5625 C-253.66616873 246.35920142 -257.10939297 242.93339494 -260.53125 239.40625 C-262.56002144 237.42883986 -264.6195196 235.5658738 -266.7578125 233.7109375 C-271.07593709 229.96400405 -275.22978598 226.06119969 -279.375 222.125 C-291.04441945 211.10332045 -302.74828731 200.12895763 -316 191 C-317.98020421 191.44033992 -317.98020421 191.44033992 -320 193 C-323.35084833 199.46235036 -323.96998885 205.79969813 -323 213 C-317.93573754 228.84926585 -302.2762857 241.79272837 -290.8125 253.3125 C-290.15958984 253.97008301 -289.50667969 254.62766602 -288.83398438 255.30517578 C-285.61313289 258.51548571 -282.34208045 261.61101303 -278.8984375 264.58203125 C-258.829558 281.93169618 -258.829558 281.93169618 -257.71484375 292.7734375 C-257.69096284 295.20929029 -257.7722772 297.5760173 -258 300 C-260 300 -260 300 -262.35546875 297.875 C-263.30466296 296.92180075 -264.24844946 295.96319392 -265.1875 295 C-266.10917969 294.071875 -267.03085937 293.14375 -267.98046875 292.1875 C-270.13800298 289.95150352 -272.1860465 287.64550585 -274.2109375 285.2890625 C-278.72339755 280.09136101 -283.57393857 275.24201812 -288.4375 270.375 C-289.34048828 269.45976562 -290.24347656 268.54453125 -291.17382812 267.6015625 C-298.42218505 259.96257475 -298.42218505 259.96257475 -307 254 C-309.99647134 254.6737595 -309.99647134 254.6737595 -311.125 256.5625 C-314.29557613 265.39481922 -312.58630328 273.4402223 -308.6953125 281.8046875 C-303.81152229 290.57607191 -297.66179054 298.57318466 -291.72167969 306.64453125 C-290.03790392 308.9481428 -288.3781645 311.2669898 -286.7265625 313.59375 C-263.48666526 346.28978439 -237.69802275 376.31931518 -196.078125 383.59643555 C-190.47694259 384.33079108 -184.89175943 384.33898713 -179.25 384.3125 C-178.0137085 384.30758545 -176.77741699 384.3026709 -175.50366211 384.29760742 C-151.0061867 383.98330992 -130.14653377 375.53622772 -113 358 C-82.29926531 324.74087075 -80.56994274 274.0285581 -75.93652344 231.43969727 C-73.84526721 212.26508646 -71.45551903 193.13094083 -69 174 C-76.45374471 171.79104038 -81.3462499 171.4615789 -88.5625 174.5 C-97.303657 180.20687032 -101.99686775 189.14023277 -106.8359375 198.05078125 C-119.34430225 221.08231936 -119.34430225 221.08231936 -130.90625 225.7734375 C-134.0344183 226.53065284 -136.0951318 226.46581972 -138.98046875 224.98046875 C-141.47986939 223.12819248 -143.71906339 221.11801257 -146 219 C-146.56170898 218.48356934 -147.12341797 217.96713867 -147.70214844 217.43505859 C-150.94890436 214.44759815 -154.17222874 211.43667041 -157.37890625 208.40625 C-160.17320466 205.76819039 -163.00261774 203.17822868 -165.875 200.625 C-172.6271183 194.58715537 -179.17814714 188.33241625 -185.76220703 182.11279297 C-189.33728559 178.73741332 -192.91884918 175.36893447 -196.5 172 C-197.91540288 170.66800944 -199.33076739 169.33597812 -200.74609375 168.00390625 C-201.44718262 167.34406738 -202.14827148 166.68422852 -202.87060547 166.00439453 C-205.00904669 163.99148437 -207.14714304 161.9782085 -209.28515625 159.96484375 C-213.52211594 155.97515676 -217.7605571 151.98704816 -222 148 C-222.69544922 147.34580078 -223.39089844 146.69160156 -224.10742188 146.01757812 C-228.12264271 142.24184856 -232.14240603 138.47107608 -236.17041016 134.70898438 C-237.35846318 133.59924709 -238.54568659 132.48862074 -239.73193359 131.37695312 C-248.7762927 121.36136901 -248.7762927 121.36136901 -260 116 Z M26 169 C25.44570313 169.53238281 24.89140625 170.06476563 24.3203125 170.61328125 C4.36363088 191.48689149 0.17311588 228.21839657 0.75390625 255.66796875 C1.85550498 285.01653206 8.71086049 316.80696983 30.5546875 337.984375 C38.41771194 344.46571783 46.9498325 346.9578012 57 346 C69.61472367 342.46787737 79.18928254 332.27611377 85.46069336 321.21362305 C95.41187766 302.82824144 101.06888757 281.95675628 101.203125 261.01171875 C101.21013931 260.27506989 101.21715363 259.53842102 101.22438049 258.77944946 C101.24178491 256.41540339 101.24823254 254.05160778 101.25 251.6875 C101.25067474 250.88009369 101.25134949 250.07268738 101.25204468 249.24081421 C101.2361196 237.25875347 100.86503561 225.69059713 98 214 C97.83902832 213.30567871 97.67805664 212.61135742 97.51220703 211.89599609 C92.93442129 192.67457298 84.38826107 172.91873532 68 161 C51.90276271 151.52083693 38.50232222 156.34521044 26 169 Z M-496 178 C-512.4467593 213.08953475 -510.13653972 267.93742802 -501 305 C-490.15838993 305.70525671 -479.33364084 306.1879781 -468.47238159 306.4425354 C-466.12389074 306.50159977 -463.77602952 306.57277013 -461.42797852 306.6472168 C-454.81275826 306.85306217 -448.22782435 307.05123131 -441.609375 306.86328125 C-429.89960896 306.64835516 -429.89960896 306.64835516 -424.75 310.3125 C-422.27099448 312.76734042 -420.23148227 315.47138567 -418.22558594 318.31835938 C-416.20895081 321.08540774 -413.89125056 323.55787812 -411.5625 326.0625 C-411.1185791 326.55049072 -410.6746582 327.03848145 -410.21728516 327.54125977 C-405.15130449 333.05627468 -399.59889871 338.03622941 -394 343 C-392.80882502 339.42647507 -393.23672266 337.60330399 -393.890625 333.91015625 C-394.10428711 332.66468018 -394.31794922 331.4192041 -394.53808594 330.13598633 C-394.65438354 329.47257233 -394.77068115 328.80915833 -394.89050293 328.12564087 C-398.7593809 305.92228813 -401.45250801 283.54754533 -402 261 C-402.02191406 260.18563477 -402.04382813 259.37126953 -402.06640625 258.53222656 C-402.72452892 230.17810816 -399.73262378 202.05716043 -396 174 C-429.38428716 173.61412311 -462.7839131 174.3820253 -496 178 Z M-462 347 C-461.85978195 349.64624284 -461.71310224 352.29184578 -461.5625 354.9375 C-461.52318359 355.69224609 -461.48386719 356.44699219 -461.44335938 357.22460938 C-461.55961976 360.91944187 -461.55961976 360.91944187 -460 364 C-458.29705651 364.31347716 -456.59289053 364.6214633 -454.88378906 364.89941406 C-437.10424804 367.82062927 -422.70834067 375.40063482 -409 387 C-408.07960938 387.71929687 -408.07960938 387.71929687 -407.140625 388.453125 C-401.57737838 392.89351451 -397.34724283 398.40207726 -393 404 C-392.32839844 404.84433594 -391.65679687 405.68867188 -390.96484375 406.55859375 C-379.91950936 420.98560109 -372.00234243 438.02085639 -369 456 C-368.88914062 456.65355469 -368.77828125 457.30710937 -368.6640625 457.98046875 C-367.60671835 465.59620433 -367.91530341 473.33025299 -368 481 C-365.89748139 481.67184618 -363.79292237 482.33730968 -361.6875 483 C-359.92986328 483.556875 -359.92986328 483.556875 -358.13671875 484.125 C-355.06113324 485.13434772 -355.06113324 485.13434772 -352 485 C-345.54062161 472.08124322 -351.31256336 449.76984124 -355.33203125 436.74609375 C-362.14567293 416.43316449 -373.68431363 398.75463423 -388 383 C-389.18335938 381.69095703 -389.18335938 381.69095703 -390.390625 380.35546875 C-406.75739365 363.14868383 -431.20219456 347.83324944 -455.5546875 346.90234375 C-456.70324219 346.91974609 -456.70324219 346.91974609 -457.875 346.9375 C-459.04675781 346.95103516 -459.04675781 346.95103516 -460.2421875 346.96484375 C-461.11230469 346.98224609 -461.11230469 346.98224609 -462 347 Z M-35 382 C-39.83333788 389.8671514 -41.7888123 396.7825822 -41 406 C-39.24641863 411.16332292 -36.50512034 413.96770746 -32 417 C-29.67706456 417.39940768 -27.34284242 417.74184319 -25 418 C-25.15804511 423.4125667 -25.38616502 428.8161101 -25.67749023 434.22314453 C-25.76676032 436.05923494 -25.83739378 437.896336 -25.88842773 439.73388672 C-26.33211974 455.01845419 -26.33211974 455.01845419 -30.44189453 459.90112305 C-33.21209425 461.89715376 -35.97299866 463.4346625 -39 465 C-47.7368948 472.29491817 -55.59856508 482.80406749 -57.34765625 494.28125 C-57.60657078 498.26455045 -57.34298595 501.1913239 -55 504.5 C-52.06666825 506.94444312 -50.19383297 508.0426204 -46.35546875 508.22265625 C-30.75422681 506.74791199 -17.74525962 495.54572571 -8 484 C-3.36351995 477.65341784 0.98605517 470.35543573 1.01171875 462.33984375 C1.73861203 456.16232092 6.65905357 452.69493321 11 448.6875 C12.74698604 447.01144934 14.49051833 445.33179087 16.23046875 443.6484375 C17.06239746 442.84760742 17.89432617 442.04677734 18.75146484 441.22167969 C23.5424993 436.48786714 27.7862068 431.29546937 31.54296875 425.703125 C34.16266938 421.8543423 35.96910454 419.74666482 40.375 418.0625 C47.98556517 415.11564817 52.39064106 408.71191545 56 401.625 C58.24966593 396.22884185 59.17333982 390.78847643 58 385 C56.73753085 383.14810282 56.73753085 383.14810282 55 382 C49.44850891 381.74179111 46.44030799 384.80916193 42.5390625 388.30859375 C40.7756624 389.86540611 40.7756624 389.86540611 41 392 C39.53191895 391.81824219 39.53191895 391.81824219 38.03417969 391.6328125 C34.39661937 391.18310821 30.75867424 390.73658622 27.12060547 390.29101562 C25.54725672 390.09787127 23.97401309 389.90386859 22.40087891 389.70898438 C20.13731664 389.42872019 17.87339205 389.15156331 15.609375 388.875 C14.90818542 388.78750488 14.20699585 388.70000977 13.48455811 388.60986328 C10.28142039 388.22142654 7.23488147 388 4 388 C4.04640625 387.443125 4.0928125 386.88625 4.140625 386.3125 C4.42526057 380.29449079 3.51536318 375.95875734 0 371 C-3.09612125 367.9977006 -6.02019488 367.73477775 -10.1875 367.5 C-20.82788073 367.85705976 -28.52881172 373.90782373 -35 382 Z M-458 381 C-457.69095829 383.27130656 -457.37765093 385.54203305 -457.0625 387.8125 C-456.88847656 389.07707031 -456.71445312 390.34164063 -456.53515625 391.64453125 C-456.09607545 394.98321703 -456.09607545 394.98321703 -455 398 C-452.1588275 399.38332438 -452.1588275 399.38332438 -448.6875 400.625 C-427.61287954 409.04511395 -413.71527016 427.70384096 -405 448 C-402.39410128 455.21412403 -401.4281962 462.36629526 -401 470 C-398.35489984 471.00197706 -395.70897598 472.00166921 -393.0625 473 C-392.30775391 473.28617188 -391.55300781 473.57234375 -390.77539062 473.8671875 C-387.47288016 475.34549268 -387.47288016 475.34549268 -384 476 C-383.17256907 457.42877239 -386.89417264 443.17423702 -396 427 C-396.53367187 426.03578125 -397.06734375 425.0715625 -397.6171875 424.078125 C-409.41889866 404.23246146 -427.24133672 388.77529478 -449.28125 381.59375 C-452.25892252 380.9434537 -454.96124594 380.89274986 -458 381 Z M-445.8125 418.9375 C-447.34577616 421.60055859 -447.21229861 423.59275939 -446.68359375 426.57421875 C-443.17011794 439.04203862 -434.21920934 450.50954832 -423 457 C-420.20438833 456.87754191 -420.20438833 456.87754191 -418 456 C-416.95042143 445.50421434 -421.64403297 437.81391911 -427.875 429.625 C-435.42677743 420.46329365 -435.42677743 420.46329365 -445.8125 418.9375 Z M-253 433 C-253.35827881 433.60062256 -253.71655762 434.20124512 -254.08569336 434.82006836 C-255.7014398 437.52679113 -257.31943878 440.23216041 -258.9375 442.9375 C-259.78344727 444.35579102 -259.78344727 444.35579102 -260.64648438 445.80273438 C-261.18466797 446.70185547 -261.72285156 447.60097656 -262.27734375 448.52734375 C-262.77484131 449.35999756 -263.27233887 450.19265137 -263.78491211 451.05053711 C-265 453 -265 453 -266 454 C-274.10378181 453.87737635 -282.04437658 452.11578771 -289.9375 450.4375 C-292.13337366 449.9743378 -294.32996326 449.51455353 -296.52734375 449.05859375 C-297.48374756 448.85548584 -298.44015137 448.65237793 -299.42553711 448.44311523 C-302.22161927 447.88691651 -302.22161927 447.88691651 -306 448 C-306.22898836 460.42352729 -305.53005225 472.7339966 -304.6875 485.125 C-304.61931061 486.13092194 -304.55112122 487.13684387 -304.48086548 488.17324829 C-304.06891023 494.20036006 -303.63982646 500.22607873 -303.19921875 506.25115967 C-303.01420607 508.80398329 -302.836135 511.35718503 -302.66015625 513.91064453 C-302.37416947 518.00667779 -302.0373213 522.09642354 -301.6875 526.1875 C-301.60653076 527.36650879 -301.52556152 528.54551758 -301.44213867 529.76025391 C-301.06515999 535.63583081 -301.06515999 535.63583081 -297.61328125 540.02734375 C-296.42089844 540.34832031 -295.22851562 540.66929687 -294 541 C-292.79089966 541.38466431 -292.79089966 541.38466431 -291.55737305 541.77709961 C-231.51623949 560.62212693 -164.43835195 559.7372405 -105 539 C-100.32435157 508.226938 -98.777111 477.08444013 -98 446 C-117.305 450.455 -117.305 450.455 -137 455 C-137.99 452.525 -137.99 452.525 -139 450 C-141.63532029 443.74672175 -144.63904239 437.35595015 -150 433 C-155.67277 431.0668966 -161.95291781 432.68718585 -167.71923828 433.57617188 C-173.31363294 434.29888873 -178.93471927 434.42172303 -184.5680542 434.57043457 C-186.63500734 434.62526547 -188.7014519 434.69055737 -190.76806641 434.75683594 C-202.79673469 435.11628651 -214.76050288 434.77399985 -226.77636719 434.16162109 C-231.20139749 433.93976635 -235.62778526 433.7558266 -240.05444336 433.56982422 C-244.36997591 433.38755829 -248.68501233 433.19468463 -253 433 Z " fill="#29348F" transform="translate(564,81)"/>
<path d="M0 0 C1.23334508 1.12041761 2.46432711 2.24348606 3.6875 3.375 C3.27763046 7.77085082 0.32936366 9.85353449 -2.8125 12.5625 C-3.90913045 13.53468082 -5.00416641 14.50866302 -6.09765625 15.484375 C-6.64180176 15.96841797 -7.18594727 16.45246094 -7.74658203 16.95117188 C-9.99388397 18.99455586 -12.12245361 21.14548816 -14.25 23.3125 C-17.12514224 26.2294625 -20.01466335 28.92821797 -23.3125 31.375 C-26.59883133 29.98708337 -29.10713895 27.97253672 -31.82836914 25.69360352 C-43.22723905 16.20444151 -55.86748218 9.88915286 -70.3125 6.375 C-71.22644531 6.15070313 -72.14039063 5.92640625 -73.08203125 5.6953125 C-93.12102155 1.60343476 -116.07147953 3.99315709 -134.3125 13.375 C-135.31539062 13.88933594 -136.31828125 14.40367187 -137.3515625 14.93359375 C-144.55939854 18.88421781 -150.50453255 23.57716861 -156.3125 29.375 C-156.93769531 29.98859375 -157.56289063 30.6021875 -158.20703125 31.234375 C-176.18416136 50.22601584 -181.5772233 78.14592428 -181.3125 103.375 C-180.2666109 129.6529636 -170.81425258 155.5998871 -151.5625 174.00390625 C-132.19700542 190.87145804 -107.13252879 199.09571995 -81.42822266 197.5390625 C-77.16780606 197.20869094 -72.92909584 196.76837156 -68.6875 196.25 C-67.87240967 196.1576709 -67.05731934 196.0653418 -66.2175293 195.97021484 C-55.83042317 194.54288847 -46.63030156 191.3229433 -36.3125 188.375 C-35.9825 167.585 -35.6525 146.795 -35.3125 125.375 C-50.4925 125.375 -65.6725 125.375 -81.3125 125.375 C-81.3125 113.495 -81.3125 101.615 -81.3125 89.375 C-53.2625 89.375 -25.2125 89.375 3.6875 89.375 C3.6875 130.295 3.6875 171.215 3.6875 213.375 C-14.11217922 221.68151697 -14.11217922 221.68151697 -22.6875 224.5 C-23.6986084 224.83273926 -24.7097168 225.16547852 -25.75146484 225.50830078 C-67.56573088 238.793813 -114.4109231 240.39554645 -154.3125 220.375 C-183.60360074 204.92768592 -204.95371317 178.30313599 -214.8503418 146.81738281 C-226.68631792 106.6354935 -223.39629639 62.77851549 -203.61816406 25.70361328 C-200.34440602 19.86496253 -196.5777904 14.52693097 -192.3125 9.375 C-191.85649414 8.82408691 -191.40048828 8.27317383 -190.93066406 7.70556641 C-170.35283886 -16.67852091 -141.03075377 -31.49347378 -109.4140625 -35.34375 C-67.95289662 -38.69327971 -31.33892126 -27.56081329 0 0 Z " fill="#29348F" transform="translate(1020.3125,231.625)"/>
<path d="M0 0 C13.2 0 26.4 0 40 0 C40.33 27.39 40.66 54.78 41 83 C44.3 81.02 47.6 79.04 51 77 C53.59996281 75.83001674 56.08263902 74.76760838 58.75 73.8125 C59.43263916 73.5647583 60.11527832 73.3170166 60.81860352 73.06176758 C87.12443181 63.80550521 115.02420823 65.41130164 140.1875 77.1875 C163.12402022 89.21805793 178.96978212 109.57965176 186.8125 134.125 C190.35854626 145.57400941 191.36571506 156.79105494 191.3125 168.75 C191.30926727 169.74028702 191.30926727 169.74028702 191.30596924 170.75057983 C191.1640654 197.86692594 183.2193893 221.64890884 165 242 C164.44957031 242.63292969 163.89914062 243.26585937 163.33203125 243.91796875 C149.18681287 259.18083402 127.17119033 268.87247998 106.60913086 270.22265625 C102.90331144 270.33998823 99.20767308 270.38043508 95.5 270.375 C94.84247742 270.37412384 94.18495483 270.37324768 93.50750732 270.37234497 C67.55724415 270.25869705 45.34837415 262.85132496 26.25 244.8125 C5.12830677 222.73771726 -0.35872321 193.20411808 -0.22705078 163.70361328 C-0.22648532 161.90846768 -0.22680585 160.11332161 -0.22793579 158.31817627 C-0.22850505 153.48853936 -0.21682048 148.65900363 -0.20278788 143.82939005 C-0.19020876 138.76589388 -0.18910439 133.70239489 -0.18673706 128.6388855 C-0.18054326 119.06993523 -0.16416112 109.50103115 -0.14403808 99.93210113 C-0.12161339 89.02993476 -0.11066919 78.12776608 -0.10064721 67.22558236 C-0.07979283 44.81702347 -0.0431431 22.40852783 0 0 Z M55.0625 121.5078125 C41.23172486 138.21999912 38.23752696 160.14068706 40.20214844 181.16308594 C41.9481939 194.55821958 46.95148131 206.94160199 56 217 C56.474375 217.60070312 56.94875 218.20140625 57.4375 218.8203125 C63.84799591 226.26583639 75.91220198 232.28821615 85.609375 233.82421875 C100.75449852 234.93783077 115.34379638 233.62181057 127.6328125 223.921875 C130.17597106 221.68996868 132.60356168 219.38810289 135 217 C135.56589844 216.45730469 136.13179687 215.91460937 136.71484375 215.35546875 C149.10233318 202.37653421 152.38077738 183.08631619 152.21484375 165.84765625 C151.33251197 150.04589622 146.83158679 135.55876354 137 123 C136.236875 121.948125 135.47375 120.89625 134.6875 119.8125 C124.80895936 109.47449236 112.14220293 104.18669862 98.01611328 103.66333008 C80.9501033 103.36648058 66.85546808 108.99884279 55.0625 121.5078125 Z " fill="#29348F" transform="translate(1361,196)"/>
<path d="M0 0 C1.5890427 1.49395038 3.17288588 2.99346241 4.75 4.5 C5.36488281 5.04011719 5.97976563 5.58023437 6.61328125 6.13671875 C23.44276837 21.49604377 30.74310127 46.04053173 33.0625 67.9375 C33.15120361 68.73438232 33.23990723 69.53126465 33.33129883 70.35229492 C34.09959315 78.95052532 33.27275444 86.6131746 32.75 95.5 C-14.44 95.5 -61.63 95.5 -110.25 95.5 C-105.28557005 111.16863499 -105.28557005 111.16863499 -97.25 124.5 C-96.486875 125.5725 -95.72375 126.645 -94.9375 127.75 C-83.53021408 139.42257164 -67.85085189 145.18271491 -51.6875 145.875 C-35.42515242 145.08615478 -20.35675141 138.26155681 -8.25 127.5 C-4.50113444 129.05653071 -2.16044992 131.37318329 0.6640625 134.25390625 C2.05238281 135.65866211 2.05238281 135.65866211 3.46875 137.09179688 C4.43785102 138.08168773 5.40659713 139.07192614 6.375 140.0625 C8.28065371 142.00450908 10.19035631 143.94234188 12.1015625 145.87890625 C12.94541504 146.7407251 13.78926758 147.60254395 14.65869141 148.49047852 C16.58637401 150.54204037 16.58637401 150.54204037 18.75 151.5 C18.75 152.16 18.75 152.82 18.75 153.5 C16.74897593 155.30639559 14.74992565 156.9745127 12.625 158.625 C11.99480957 159.11564941 11.36461914 159.60629883 10.71533203 160.11181641 C-13.60490008 178.64353116 -40.84274545 184.40733636 -71.05322266 181.20263672 C-94.66415359 177.77293551 -116.23647202 164.50651116 -130.9375 145.875 C-139.79150085 133.42155053 -145.81228927 120.36752725 -149.25 105.5 C-149.49492188 104.47261719 -149.73984375 103.44523437 -149.9921875 102.38671875 C-155.42644135 74.28492658 -149.83491435 43.98182052 -135.25 19.5 C-132.78978518 15.95522483 -130.11226394 12.72369035 -127.25 9.5 C-126.70988281 8.81808594 -126.16976563 8.13617188 -125.61328125 7.43359375 C-112.10574232 -9.27912391 -89.83846509 -18.74277536 -68.90087891 -21.05078125 C-43.95671837 -23.27545555 -18.96284184 -16.8431284 0 0 Z M-98.25 32.5 C-103.74749785 39.9026652 -110.25 49.90084628 -110.25 59.5 C-76.59 59.5 -42.93 59.5 -8.25 59.5 C-10.28500633 45.25495568 -16.93105014 34.28667149 -27.98828125 25.09765625 C-50.0105738 9.54132179 -80.05461887 12.3721029 -98.25 32.5 Z " fill="#29348F" transform="translate(1730.25,284.5)"/>
<path d="M0 0 C12.21243455 11.4136732 20.31082146 24.50683382 25.625 40.25 C25.91125244 41.09602783 26.19750488 41.94205566 26.49243164 42.8137207 C30.15585641 54.2598585 31.11580467 65.39591686 31.0625 77.375 C31.05926727 78.36528702 31.05926727 78.36528702 31.05596924 79.37557983 C30.9140654 106.49192594 22.9693893 130.27390884 4.75 150.625 C4.19957031 151.25792969 3.64914062 151.89085937 3.08203125 152.54296875 C-11.05042013 167.79205827 -33.03815505 177.47392553 -53.5793457 178.84765625 C-68.09808288 179.31878668 -82.44639529 179.59358891 -96.25 174.625 C-96.92272949 174.38362305 -97.59545898 174.14224609 -98.28857422 173.89355469 C-121.19875054 165.35259798 -139.14670355 148.95433397 -149.98828125 127.125 C-163.15863091 97.84303153 -163.94075894 64.97574856 -152.984375 34.89453125 C-144.1027879 12.1111066 -126.54547548 -5.62581585 -104.75 -16.1875 C-69.64990386 -31.02573306 -28.52663978 -25.7593311 0 0 Z M-105.1875 30.1328125 C-119.01827514 46.84499912 -122.01247304 68.76568706 -120.04785156 89.78808594 C-118.22846825 103.7458455 -112.92937605 116.37414788 -103.25 126.625 C-102.57195312 127.34429687 -101.89390625 128.06359375 -101.1953125 128.8046875 C-91.00164154 138.69964283 -78.26804441 142.5570771 -64.375 142.9375 C-49.97018056 142.68752483 -36.72811358 137.62516454 -26.25 127.625 C-12.84452145 112.66074487 -7.46874834 94.26829491 -7.96875 74.4765625 C-9.34263275 55.66200144 -14.77829067 38.78114451 -28.6640625 25.27734375 C-41.15434069 14.67052021 -55.05240713 11.63929785 -70.99755859 12.43408203 C-84.60732847 13.58765238 -95.95665656 20.34152499 -105.1875 30.1328125 Z " fill="#29348F" transform="translate(1300.25,287.375)"/>
<path d="M0 0 C13.2 0 26.4 0 40 0 C40 88.11 40 176.22 40 267 C26.8 267 13.6 267 0 267 C0 178.89 0 90.78 0 0 Z " fill="#29348F" transform="translate(1068,196)"/>
<path d="M0 0 C6.71406271 6.92661218 11.11392775 14.86390391 11.4375 24.625 C11.01047048 33.58006017 7.95602693 39.08596996 1.78125 45.6015625 C-11.480163 57.03766866 -30.09889264 59.89725775 -47.0859375 58.78515625 C-63.56153932 57.30795117 -77.70567728 51.64390277 -88.625 38.9921875 C-92.88856387 32.81486485 -92.70559955 26.25390753 -92 19 C-91.05840145 15.72381948 -89.72522886 12.93109816 -88 10 C-87.401875 8.96875 -86.80375 7.9375 -86.1875 6.875 C-77.17841743 -4.96550852 -64.61340465 -11.91608846 -50 -14.375 C-31.72248561 -16.42429707 -13.99452684 -12.40474859 0 0 Z M-66.234375 11.078125 C-69.99838932 15.17523793 -71.77343556 19.12275176 -72.4375 24.625 C-71.5033337 31.83142574 -67.54509212 36.58655934 -62 41 C-51.52251339 47.18473792 -40.61362554 48.86459659 -28.6796875 46.28125 C-20.48572528 43.4510235 -14.27265722 39.69072502 -9.9453125 32.0390625 C-7.83455537 27.48610704 -7.54481647 23.72572116 -9.0625 19 C-12.36521356 11.39641945 -17.53490224 6.95346118 -24.87109375 3.23046875 C-39.99337703 -2.71649658 -54.46739663 0.23768036 -66.234375 11.078125 Z " fill="#29348F" transform="translate(402,568)"/>
<path d="M0 0 C3.67833024 2.86092352 4.97707568 4.65830272 6.125 9.25 C7.44214453 24.76939862 -2.89432268 39.80390802 -12.41308594 51.17529297 C-12.85426758 51.69494629 -13.29544922 52.21459961 -13.75 52.75 C-14.18860352 53.26836426 -14.62720703 53.78672852 -15.07910156 54.32080078 C-25.27355397 66.21930028 -38.00192725 79.61303983 -54.12890625 82.31640625 C-58.72838182 82.49135563 -61.79780715 82.26418414 -65.875 80.0625 C-69.62221493 75.44093492 -70.23390448 71.65363465 -69.75 65.75 C-66.34084485 49.24854313 -56.009419 36.07844559 -44.79296875 24.00390625 C-42.70525179 21.75986798 -42.70525179 21.75986798 -40.8125 19.2421875 C-32.5667847 9.27861485 -13.97297314 -6.35135143 0 0 Z " fill="#29348F" transform="translate(185.75,114.25)"/>
<path d="M0 0 C22.75418679 10.76734068 42.87510839 34.91219206 52.1875 58.12109375 C53.92911568 63.75573271 54.76710566 69.2640199 52.92578125 74.9765625 C50.8754285 78.47986306 48.86445173 80.66367234 44.92578125 81.9765625 C33.88187907 83.12696898 24.12863011 77.11101706 15.73828125 70.49169922 C-0.06521294 57.2809658 -18.58285932 37.28205629 -21.9609375 15.99609375 C-22.25989229 10.66645146 -22.07667577 6.52875402 -19.13671875 1.9765625 C-14.08045649 -2.92647969 -6.32747712 -2.10647904 0 0 Z " fill="#29348F" transform="translate(554.07421875,115.0234375)"/>
<path d="M0 0 C5.17055434 2.58527717 8.51708322 6.17664641 12.5625 10.25 C13.3673584 11.05832275 14.1722168 11.86664551 15.00146484 12.69946289 C21.59938564 19.41726159 27.42128148 26.43218615 33 34 C33.83324907 35.04745773 34.67044067 36.09179238 35.51171875 37.1328125 C36.27097656 38.09960938 37.03023437 39.06640625 37.8125 40.0625 C38.47894531 40.89910156 39.14539063 41.73570312 39.83203125 42.59765625 C41 45 41 45 40.47265625 47.43359375 C34.36414695 58.07892693 25.48405387 67.21764948 17 76 C16.08420166 76.94866943 16.08420166 76.94866943 15.14990234 77.91650391 C13.2544874 79.86977939 11.34873363 81.81220767 9.4375 83.75 C8.84163086 84.35900146 8.24576172 84.96800293 7.63183594 85.59545898 C3.35293757 89.88235414 3.35293757 89.88235414 0 91 C0 60.97 0 30.94 0 0 Z " fill="#29348F" transform="translate(611,286)"/>
<path d="M0 0 C3.14724986 0.51930786 6.3014082 0.92008686 9.46655273 1.31176758 C12.19658268 1.65398496 14.91948772 2.04283931 17.64257812 2.43603516 C18.11097478 6.46302979 17.80627068 8.17450701 15.62304688 11.66259766 C14.70812592 12.80842723 13.77606734 13.94071816 12.83007812 15.06103516 C12.33668945 15.66641113 11.84330078 16.27178711 11.33496094 16.89550781 C7.12029127 22.009503 2.67974648 26.91291069 -1.85351562 31.74462891 C-4.02216182 34.07566983 -6.10778548 36.44882533 -8.16992188 38.87353516 C-9.23147683 40.06188005 -10.29388335 41.24946518 -11.35742188 42.43603516 C-11.78667969 42.97486328 -12.2159375 43.51369141 -12.65820312 44.06884766 C-13.98242188 45.49853516 -13.98242188 45.49853516 -17.35742188 47.43603516 C-21.76272138 47.5414251 -26.00480184 47.08828237 -30.35742188 46.43603516 C-29.89414678 41.09794412 -29.41375001 35.76212016 -28.90429688 30.42822266 C-28.55896837 26.7883675 -28.26860795 23.15646267 -28.06054688 19.50634766 C-27.5783574 12.20121677 -26.99131783 5.01883788 -21.40429688 -0.28271484 C-14.66817388 -3.11534092 -7.00300494 -1.1684118 0 0 Z " fill="#29348F" transform="translate(579.357421875,485.56396484375)"/>
</svg>
