<?xml version="1.0" standalone="no"?>
<!DOCTYPE svg PUBLIC "-//W3C//DTD SVG 20010904//EN"
 "http://www.w3.org/TR/2001/REC-SVG-20010904/DTD/svg10.dtd">
<svg version="1.0" xmlns="http://www.w3.org/2000/svg"
 width="300.000000pt" height="111.000000pt" viewBox="0 0 300.000000 111.000000"
 preserveAspectRatio="xMidYMid meet">
<metadata>
Created by potrace 1.10, written by Peter Selinger 2001-2011
</metadata>
<g transform="translate(0.000000,111.000000) scale(0.100000,-0.100000)"
fill="#000000" stroke="none">
<path d="M471 1074 c-233 -62 -401 -280 -401 -519 0 -292 244 -535 536 -535
286 0 526 241 528 530 1 303 -237 541 -539 539 -38 0 -94 -7 -124 -15z m258
-26 c28 -6 51 -14 51 -18 0 -7 -142 -33 -180 -33 -42 1 -170 26 -170 34 0 26
210 38 299 17z m-159 -70 c22 -7 43 -7 73 1 23 6 65 12 92 13 l50 3 3 -44 c3
-38 1 -43 -14 -37 -10 4 -54 12 -97 18 -74 10 -191 1 -240 -18 -14 -5 -17 1
-17 41 l0 48 60 -7 c33 -4 74 -12 90 -18z m280 -14 c-15 -17 -30 -9 -30 17 0
17 3 18 21 9 16 -9 18 -14 9 -26z m-467 6 c-6 -24 -26 -21 -31 3 -2 11 3 17
16 17 15 0 19 -5 15 -20z m-39 -42 c8 -13 7 -26 -1 -48 -12 -31 -11 -31 33
-50 40 -18 44 -22 34 -40 -10 -19 -11 -19 -54 2 l-44 21 -40 -32 c-94 -76
-142 1 -59 95 37 43 86 75 106 72 8 -2 19 -11 25 -20z m592 3 c36 -22 78 -73
94 -115 27 -73 -33 -91 -101 -29 -62 56 -90 120 -64 147 21 21 33 20 71 -3z
m-213 -41 c32 -7 55 -7 67 0 25 14 27 13 33 -12 4 -15 -2 -30 -23 -52 -31 -31
-38 -64 -18 -84 9 -9 3 -21 -27 -52 -21 -22 -42 -40 -45 -40 -3 0 -37 30 -75
66 -85 80 -117 99 -145 84 -11 -6 -20 -17 -20 -24 0 -14 -21 -26 -43 -26 -8 0
-7 4 1 12 20 20 13 54 -18 86 -16 18 -30 36 -30 42 0 12 20 13 38 2 7 -5 45
-4 85 2 79 12 146 11 220 -4z m161 -82 c8 -13 7 -21 -2 -30 -17 -17 -46 1 -50
31 -3 18 1 22 19 19 12 -2 27 -11 33 -20z m-58 -29 c10 -17 -13 -36 -27 -22
-12 12 -4 33 11 33 5 0 12 -5 16 -11z m-211 -92 c59 -55 101 -87 110 -83 8 3
26 23 40 46 31 49 70 57 61 13 -3 -16 -10 -65 -16 -111 -18 -149 -62 -212
-153 -220 -76 -6 -123 21 -187 105 -45 60 -65 113 -41 113 5 0 26 -19 45 -42
20 -23 36 -36 36 -28 0 7 -25 39 -55 71 -50 52 -67 90 -47 103 4 2 38 -25 75
-60 86 -83 88 -59 2 26 -60 60 -77 91 -56 104 4 3 35 -18 67 -47 32 -29 67
-58 77 -66 31 -24 18 6 -23 54 -22 25 -44 54 -50 65 -11 20 -3 53 11 48 4 -2
51 -43 104 -91z m-264 72 c19 -6 40 -13 47 -15 10 -3 10 -9 2 -25 -28 -51 -29
-153 -4 -233 11 -34 97 -134 136 -158 39 -24 47 -36 26 -42 -7 -2 -33 -9 -58
-16 -38 -10 -75 -24 -101 -38 -4 -1 -18 21 -32 50 -15 30 -34 62 -44 73 -15
17 -18 39 -18 155 0 74 4 140 7 146 4 6 -4 24 -18 39 -25 27 -23 43 11 67 12
9 6 10 46 -3z m583 -24 c18 -14 18 -16 -4 -67 -19 -44 -22 -65 -18 -133 4 -66
9 -88 32 -125 16 -25 22 -39 15 -32 -22 21 -64 14 -94 -15 -25 -25 -26 -32
-20 -81 4 -36 3 -58 -5 -68 -15 -17 -30 -18 -30 -2 0 21 -32 48 -57 48 -28 0
-63 16 -63 29 0 5 13 14 29 21 64 26 103 92 120 201 22 145 22 160 6 186 -19
28 -18 28 15 42 35 14 52 13 74 -4z m118 -26 c54 -29 76 -174 39 -256 -23 -50
-54 -70 -87 -54 -73 33 -85 231 -19 297 27 27 37 29 67 13z m-778 -101 c-3
-46 -1 -110 4 -143 6 -33 8 -62 5 -65 -2 -3 -17 10 -31 28 -25 30 -31 32 -88
32 l-61 0 -6 49 c-5 46 -3 91 9 148 4 19 12 22 62 26 31 2 69 4 85 5 l27 2 -6
-82z m-33 -234 c62 -31 119 -123 119 -192 0 -38 -32 -24 -36 16 -8 73 -67 147
-126 159 -19 4 -28 12 -28 25 0 21 18 19 71 -8z m712 -34 c18 -21 52 -27 62
-10 10 16 25 12 25 -7 0 -10 -23 -42 -50 -71 -28 -29 -50 -59 -50 -67 0 -19
-59 -67 -79 -63 -25 5 -24 33 2 64 29 35 40 81 21 88 -33 13 -2 86 35 86 9 0
24 -9 34 -20z m-729 -20 c35 -23 76 -86 76 -117 0 -33 -26 -28 -33 6 -7 33
-53 91 -73 91 -8 0 -14 2 -14 4 0 2 -3 11 -6 20 -8 22 14 20 50 -4z m26 -101
c0 -18 -28 -8 -44 16 -25 38 -8 54 21 21 12 -15 23 -31 23 -37z m454 15 c5
-13 15 -15 42 -11 l36 6 -7 -77 c-4 -42 -12 -80 -18 -84 -24 -15 -150 -30
-195 -23 -89 12 -119 24 -126 48 -6 21 -9 137 -3 137 1 0 17 -4 34 -9 28 -8
33 -7 38 10 6 17 16 19 100 19 77 0 94 -3 99 -16z"/>
<path d="M251 884 c-63 -56 -70 -120 -11 -89 50 26 94 111 63 122 -6 2 -30
-12 -52 -33z"/>
<path d="M894 906 c-11 -29 64 -126 97 -126 35 0 9 71 -41 114 -36 29 -48 32
-56 12z"/>
<path d="M1020 555 l0 -79 30 34 c16 19 29 40 29 45 0 6 -13 26 -29 45 l-30
34 0 -79z"/>
<path d="M926 284 c-9 -23 -7 -64 2 -64 11 0 67 59 61 63 -2 3 -16 7 -30 11
-19 4 -29 1 -33 -10z"/>
<path d="M546 159 c-39 -31 -35 -66 11 -85 47 -20 98 -11 119 21 41 62 -65
115 -130 64z m96 -16 c22 -20 22 -27 2 -47 -18 -19 -65 -21 -82 -4 -43 43 34
93 80 51z"/>
<path d="M1475 768 c-88 -31 -139 -111 -138 -215 1 -87 32 -147 98 -188 43
-27 57 -30 124 -29 42 0 91 7 109 15 l34 14 1 103 2 102 -67 0 -68 0 0 -29 c0
-26 3 -28 37 -27 l37 1 -1 -54 c-1 -63 -8 -69 -89 -70 -93 -2 -157 65 -157
164 0 129 119 204 225 143 43 -25 43 -25 63 -6 20 20 20 20 -8 43 -47 42 -136
56 -202 33z"/>
<path d="M1780 560 l0 -220 33 0 32 0 0 220 0 220 -32 0 -33 0 0 -220z"/>
<path d="M2270 618 c0 -198 12 -236 82 -268 56 -26 94 -25 148 2 55 29 80 74
80 145 0 63 -10 90 -45 125 -48 48 -109 55 -187 23 -16 -6 -18 0 -18 64 l0 71
-30 0 -30 0 0 -162z m221 -37 c63 -63 24 -191 -58 -191 -47 0 -72 16 -89 55
-18 44 -18 69 2 110 28 61 98 73 145 26z"/>
<path d="M2005 655 c-93 -33 -130 -148 -79 -246 24 -48 72 -74 134 -74 98 0
154 62 154 166 -1 121 -100 194 -209 154z m108 -65 c30 -24 49 -79 40 -121
-15 -74 -104 -105 -156 -54 -89 90 19 251 116 175z"/>
<path d="M2724 651 c-58 -26 -87 -78 -87 -151 0 -73 29 -125 87 -151 52 -24
90 -23 144 1 47 21 50 29 24 53 -16 15 -21 15 -38 2 -34 -25 -92 -19 -125 14
-54 54 -44 61 92 61 l122 0 -7 42 c-10 63 -36 100 -86 126 -53 27 -73 27 -126
3z m121 -66 c46 -45 35 -55 -60 -55 -70 0 -85 3 -85 15 0 30 47 65 85 65 25 0
44 -8 60 -25z"/>
</g>
</svg>
